<?xml version="1.0" standalone="no"?>
<!DOCTYPE svg PUBLIC "-//W3C//DTD SVG 20010904//EN"
 "http://www.w3.org/TR/2001/REC-SVG-20010904/DTD/svg10.dtd">
<svg version="1.0" xmlns="http://www.w3.org/2000/svg"
 width="700.000000pt" height="700.000000pt" viewBox="0 0 700.000000 700.000000"
 preserveAspectRatio="xMidYMid meet">
<metadata>
Created by potrace 1.11, written by Peter Selinger 2001-2013
</metadata>
<g transform="translate(0.000000,700.000000) scale(0.100000,-0.100000)"
fill="#000000" stroke="none">
<path d="M3884 6881 c-115 -33 -169 -83 -228 -213 -30 -65 -76 -221 -90 -303
-3 -16 -7 -39 -9 -50 -5 -21 -13 -68 -22 -125 -3 -19 -14 -80 -25 -135 -10
-55 -21 -120 -25 -145 -4 -25 -13 -74 -20 -110 -7 -36 -16 -83 -19 -105 -7
-43 -12 -74 -21 -115 -3 -14 -7 -38 -10 -55 -2 -16 -15 -93 -30 -170 -31 -172
-32 -176 -44 -250 -5 -33 -21 -121 -35 -195 -14 -74 -27 -148 -30 -165 -7 -36
-14 -72 -21 -105 -3 -14 -12 -61 -20 -105 -8 -44 -17 -93 -20 -110 -8 -44 -31
-159 -66 -340 -17 -88 -33 -171 -35 -185 -4 -25 -19 -101 -29 -150 -5 -24 -20
-97 -30 -150 -3 -14 -24 -121 -47 -238 l-42 -213 -45 6 c-25 3 -77 10 -116 16
-38 5 -91 12 -118 15 -26 3 -107 23 -180 46 -72 22 -157 46 -187 54 -224 60
-446 166 -611 293 -107 83 -235 232 -305 356 l-34 62 -55 6 c-84 9 -142 55
-170 138 -66 193 177 345 328 205 74 -69 79 -216 8 -280 -25 -23 -18 -42 56
-155 111 -167 273 -302 491 -412 93 -46 254 -105 317 -116 17 -3 34 -6 38 -6
12 -3 74 154 97 243 28 109 32 135 32 235 0 250 -113 442 -372 632 -86 62
-246 151 -480 266 -397 195 -583 323 -850 584 -56 56 -86 79 -91 71 -3 -7 -9
-35 -13 -63 -3 -27 -8 -61 -10 -75 -32 -197 -38 -609 -11 -840 21 -178 75
-421 125 -565 39 -111 125 -290 179 -370 49 -75 150 -186 214 -237 31 -24 44
-40 35 -43 -7 -3 -53 -16 -101 -30 -272 -78 -410 -224 -395 -418 22 -273 357
-393 548 -197 25 26 54 65 64 87 20 45 25 47 176 61 132 12 583 4 669 -13 9
-1 52 -6 96 -9 44 -4 87 -9 95 -11 8 -2 38 -6 65 -10 59 -7 199 -25 235 -30
14 -2 45 -6 70 -10 109 -15 102 -9 95 -78 -3 -34 -8 -69 -10 -77 -2 -8 -7 -35
-10 -60 -24 -173 -104 -526 -184 -800 -103 -358 -272 -765 -361 -872 -25 -29
-34 -33 -81 -35 -194 -6 -320 -171 -285 -373 30 -169 208 -256 431 -210 309
64 506 295 780 915 58 131 164 431 228 645 58 193 192 696 204 765 3 17 6 31
6 31 1 1 88 -17 192 -41 577 -130 1127 -289 1509 -436 199 -77 235 -95 351
-183 158 -120 275 -165 425 -162 67 2 96 7 135 26 99 48 155 136 155 244 0 79
-34 138 -143 251 -128 133 -183 214 -307 450 -66 125 -200 393 -200 400 0 2
-18 42 -39 87 -53 112 -98 211 -128 283 -14 33 -33 78 -43 100 -10 22 -34 81
-54 130 -20 50 -41 99 -46 110 -72 161 -297 756 -420 1110 -29 83 -56 159 -60
170 -26 61 -251 754 -319 980 -10 33 -35 114 -55 180 -21 66 -58 196 -82 290
-71 272 -127 366 -241 406 -66 24 -239 24 -319 0z m276 -2266 c28 -82 61 -179
75 -215 46 -126 162 -435 170 -455 5 -11 9 -22 10 -25 1 -3 6 -16 12 -30 6
-14 24 -59 41 -100 34 -86 173 -411 207 -485 12 -27 42 -93 66 -145 24 -52 83
-174 131 -270 48 -96 85 -176 83 -178 -2 -2 -20 1 -40 8 -20 7 -42 13 -48 14
-7 1 -37 10 -67 19 -56 16 -310 82 -352 91 -13 3 -81 19 -153 36 -71 17 -137
33 -145 35 -29 7 -305 67 -325 70 -11 2 -46 10 -77 17 -65 14 -62 -1 -27 155
10 44 21 94 23 110 3 15 23 116 45 223 22 107 42 206 45 220 2 14 20 108 39
210 20 102 38 205 42 230 3 25 10 63 15 85 5 22 32 177 60 345 46 271 55 321
60 340 1 7 47 -121 110 -305z"/>
<path d="M1301 4306 c-117 -38 -88 -216 34 -216 69 0 123 75 104 142 -17 63
-77 95 -138 74z"/>
<path d="M2290 2500 c-127 -24 -210 -137 -197 -266 13 -129 114 -217 247 -217
107 0 184 47 226 138 88 188 -69 384 -276 345z"/>
</g>
</svg>
